<?xml version="1.0" standalone="no"?><!DOCTYPE svg PUBLIC "-//W3C//DTD SVG 1.1//EN" "http://www.w3.org/Graphics/SVG/1.1/DTD/svg11.dtd"><svg t="1505206352625" class="icon" style="" viewBox="0 0 1024 1024" version="1.1" xmlns="http://www.w3.org/2000/svg" p-id="3016" xmlns:xlink="http://www.w3.org/1999/xlink" width="16" height="16"><defs><style type="text/css"></style></defs><path d="M362.666667 128 277.333333 128C277.333333 55.466667 332.8 0 405.333333 0L405.333333 85.333333C379.733333 85.333333 362.666667 102.4 362.666667 128L362.666667 128Z" p-id="3017" fill="#cdcdcd"></path><path d="M704 128 618.666667 128C618.666667 102.4 601.6 85.333333 576 85.333333L576 0C648.533333 0 704 55.466667 704 128L704 128Z" p-id="3018" fill="#cdcdcd"></path><path d="M704 256 277.333333 256 277.333333 128 362.666667 128 362.666667 170.666667 618.666667 170.666667 618.666667 128 704 128 704 256Z" p-id="3019" fill="#cdcdcd"></path><path d="M405.3312 0l170.6688 0 0 85.3312-170.6688 0 0-85.3312Z" p-id="3020" fill="#cdcdcd"></path><path d="M874.666669 256 106.666667 256C81.066667 256 64 238.933333 64 213.333333 64 187.733333 81.066667 170.666667 106.666667 170.666667L874.666669 170.666667C900.266669 170.666667 917.333331 187.733333 917.333331 213.333333 917.333331 238.933333 900.266669 256 874.666669 256L874.666669 256Z" p-id="3021" fill="#cdcdcd"></path><path d="M789.333331 1024 192 1024C166.4 1024 149.333333 1006.933331 149.333333 981.333331L149.333333 384C149.333333 358.4 166.4 341.333333 192 341.333333L789.333331 341.333333C814.933331 341.333333 832 358.4 832 384L832 981.333331C832 1006.933331 814.933331 1024 789.333331 1024L789.333331 1024ZM234.666667 938.666669 746.666669 938.666669 746.666669 426.666667 234.666667 426.666667 234.666667 938.666669 234.666667 938.666669Z" p-id="3022" fill="#cdcdcd"></path><path d="M405.333333 853.333331C379.733333 853.333331 362.666667 836.266669 362.666667 810.666669L362.666667 554.666667C362.666667 529.066667 379.733333 512 405.333333 512 430.933333 512 448 529.066667 448 554.666667L448 810.666669C448 836.266669 430.933333 853.333331 405.333333 853.333331L405.333333 853.333331Z" p-id="3023" fill="#cdcdcd"></path><path d="M576 853.333331C550.4 853.333331 533.333333 836.266669 533.333333 810.666669L533.333333 554.666667C533.333333 529.066667 550.4 512 576 512 601.6 512 618.666667 529.066667 618.666667 554.666667L618.666667 810.666669C618.666667 836.266669 601.6 853.333331 576 853.333331L576 853.333331Z" p-id="3024" fill="#cdcdcd"></path></svg>